<?xml version="1.0" encoding="UTF-8" standalone="no"?>
<!DOCTYPE svg PUBLIC "-//W3C//DTD SVG 1.1//EN" "http://www.w3.org/Graphics/SVG/1.1/DTD/svg11.dtd">
<svg width="100%" height="100%" viewBox="0 0 128 128" version="1.1" xmlns="http://www.w3.org/2000/svg" xmlns:xlink="http://www.w3.org/1999/xlink" xml:space="preserve" xmlns:serif="http://www.serif.com/" style="fill-rule:evenodd;clip-rule:evenodd;stroke-linejoin:round;stroke-miterlimit:2;">
    <rect id="Artboard1" x="0" y="0" width="128" height="128" style="fill:none;"/>
    <g id="Artboard11" serif:id="Artboard1">
        <g id="ui-sfx_icon.svg" transform="matrix(0.726562,0,0,0.726562,64,64)">
            <g transform="matrix(1,0,0,1,-64,-64)">
                <g id="Sound-ICON" serif:id="Sound ICON">
                    <path d="M29.682,84.557L13.989,84.557C11.365,84.557 9.238,82.43 9.238,79.806L9.238,48.202C9.238,45.578 11.365,43.452 13.989,43.452L29.682,43.452L50.886,26.768C52.356,25.959 54.144,25.987 55.588,26.841C57.032,27.695 57.918,29.248 57.918,30.925L57.918,97.062C57.918,98.744 57.03,100.301 55.582,101.157C54.134,102.013 52.341,102.041 50.867,101.23L29.682,84.557Z"/>
                    <g id="sound-waves" serif:id="sound waves">
                        <path d="M69.96,51.798C68.252,50.247 68.125,47.601 69.677,45.893C71.228,44.185 73.874,44.058 75.582,45.609C75.582,45.609 83.74,52.965 83.74,64.61C83.74,76.629 75.233,82.674 75.233,82.674C73.368,84.033 70.751,83.623 69.393,81.758C68.034,79.893 68.444,77.276 70.309,75.918C70.309,75.918 75.379,72.069 75.379,64.61C75.379,56.776 69.96,51.798 69.96,51.798Z"/>
                        <path d="M96.76,33.272C95.052,31.72 94.925,29.074 96.476,27.367C98.027,25.659 100.673,25.532 102.381,27.083C102.381,27.083 118.762,41.908 118.762,65.348C118.762,89.163 102.032,101.201 102.032,101.201C100.168,102.56 97.551,102.149 96.192,100.284C94.833,98.42 95.244,95.803 97.108,94.444C97.108,94.444 110.401,84.603 110.401,65.348C110.401,45.719 96.76,33.272 96.76,33.272Z"/>
                        <path d="M84.971,45.242C83.263,43.691 83.136,41.045 84.688,39.337C86.239,37.63 88.885,37.503 90.593,39.054C90.593,39.054 101.661,49.053 101.661,64.871C101.661,81.064 90.244,89.23 90.244,89.23C88.379,90.589 85.762,90.178 84.404,88.313C83.045,86.449 83.455,83.832 85.32,82.473C85.32,82.473 93.3,76.504 93.3,64.871C93.3,52.863 84.971,45.242 84.971,45.242Z"/>
                    </g>
                </g>
            </g>
        </g>
    </g>
</svg>
